HIERARCHY
ROOT Root
{
  OFFSET 6.77787 12.0689 36.7517
  CHANNELS 6 Xposition Yposition Zposition Zrotation Xrotation Yrotation
  JOINT Spine
  {
    OFFSET 5.3114 0 0
    CHANNELS 3 Zrotation Xrotation Yrotation
    JOINT Spine1
    {
      OFFSET 2.79004 0 0
      CHANNELS 3 Zrotation Xrotation Yrotation
      JOINT Neck
      {
        OFFSET 1.43377 0 0
        CHANNELS 3 Zrotation Xrotation Yrotation
        JOINT Head
        {
          OFFSET 1.86043 0 0
          CHANNELS 3 Zrotation Xrotation Yrotation
          End Site
          {
            OFFSET 0 0 0
          }
        }
      }
      JOINT LeftArm
      {
        OFFSET 0.0387506 0 2.55754
        CHANNELS 3 Zrotation Xrotation Yrotation
        JOINT LeftForeArm
        {
          OFFSET 4.24845 0 0
          CHANNELS 3 Zrotation Xrotation Yrotation
          JOINT LeftHand
          {
            OFFSET 4.01008 0 0
            CHANNELS 3 Zrotation Xrotation Yrotation
            End Site
            {
              OFFSET 0 0 0
            }
          }
        }
      }
      JOINT RightArm
      {
        OFFSET 0.0387506 0 -2.55754
        CHANNELS 3 Zrotation Xrotation Yrotation
        JOINT RightForeArm
        {
          OFFSET -4.24845 0 0
          CHANNELS 3 Zrotation Xrotation Yrotation
          JOINT RightHand
          {
            OFFSET -4.01009 0 0
            CHANNELS 3 Zrotation Xrotation Yrotation
            End Site
            {
              OFFSET 0 0 0
            }
          }
        }
      }
    }
  }
  JOINT LeftUpLeg
  {
    OFFSET -1.23318 0 2.05692
    CHANNELS 3 Zrotation Xrotation Yrotation
    JOINT LeftLeg
    {
      OFFSET 5.46397 0 0
      CHANNELS 3 Zrotation Xrotation Yrotation
      JOINT LeftFoot
      {
        OFFSET 4.68898 0 0
        CHANNELS 3 Zrotation Xrotation Yrotation
        End Site
        {
          OFFSET 0 0 0
        }
      }
    }
  }
  JOINT RightUpLeg
  {
    OFFSET -1.24454 0 -2.05007
    CHANNELS 3 Zrotation Xrotation Yrotation
    JOINT RightLeg
    {
      OFFSET -5.46397 0 0
      CHANNELS 3 Zrotation Xrotation Yrotation
      JOINT RightFoot
      {
        OFFSET -4.68901 0 0
        CHANNELS 3 Zrotation Xrotation Yrotation
        End Site
        {
          OFFSET 0 0 0
        }
      }
    }
  }
}
MOTION
Frames:	8
Frame Time:	0.0416667
8.54125 12.2811 -31.763 -76.1984 73.2348 171.934 7.813 7.13598 8.80534 -3.11159 1.84184 1.5441 6.04081 -15.8557 -13.4565 12.8179 -28.4122 17.9997 33.67 -37.5036 -148.569 62.5327 14.1896 33.1695 0.225996 2.58197 174.451 -164.783 -44.9986 -140.956 32.0266 2.42421 18.4315 3.3472 33.7216 173.44 -8.3925 -3.68382 170.091 -25.8381 -1.15387 -1.07455 17.0044 5.35201 175.409 171.604 2.07314 -170.141 -60.5851 -1.51014 -2.08914 24.8131 -14.407 -178.085 
8.57169 12.2071 -31.8157 -75.1678 72.7297 171.954 8.09529 6.54729 7.84572 -2.88796 1.69168 1.28974 6.20349 -15.48 -13.8813 12.6184 -27.588 17.9611 31.4523 -37.855 -145.682 61.7767 13.7986 32.8736 0.256585 2.92996 174.448 -164.29 -43.6802 -142.358 31.021 2.18906 17.8762 3.38089 33.9339 173.422 -8.26115 -2.19831 169.27 -26.3636 -1.20162 -1.09013 18.1642 6.96587 174.682 171.223 2.71661 -169.366 -62.1398 -1.63167 -2.14048 28.1652 -15.2868 -176.878 
8.57769 12.1499 -31.8725 -73.9076 72.4817 171.716 8.25257 6.05439 7.23534 -2.57757 1.57871 0.697452 6.15323 -15.0849 -13.9959 12.7991 -26.799 17.4247 28.4605 -38.488 -143.109 59.2299 12.5164 31.8391 0.28284 3.22845 174.445 -163.757 -41.6369 -143.745 30.2631 2.01887 17.4561 3.39856 34.0202 173.412 -8.02777 -0.367429 168.651 -26.7945 -1.23722 -1.10155 18.5937 9.18609 173.752 171.422 2.73937 -168.773 -62.7933 -1.75878 -2.16004 31.3506 -16.4135 -175.451 
8.55645 12.0974 -31.9139 -71.7088 72.8058 170.413 8.36029 5.67583 6.89863 -2.51601 1.48702 0.151765 6.12037 -14.4833 -13.9881 12.9527 -25.6659 16.275 25.4545 -39.0702 -141.696 56.295 11.103 30.5885 0.285225 3.25488 174.444 -162.697 -39.6455 -144.836 29.3756 1.82685 16.9619 3.27233 33.1183 173.479 -7.50863 0.639098 168.036 -27.3046 -1.27157 -1.11584 19.7511 8.72479 173.732 172.138 2.18299 -168.481 -62.5199 -1.88311 -2.14694 34.2146 -17.64 -173.884 
8.53805 12.0638 -31.9448 -70.5028 73.3429 169.864 7.91206 4.94592 7.14093 -2.4057 1.29037 -0.304921 5.59466 -13.5693 -13.929 12.7353 -24.1585 14.4438 21.5531 -39.2816 -142.017 52.7507 9.49059 29.0045 0.359406 4.09703 174.437 -161.526 -37.3332 -145.183 28.6408 1.67417 16.5511 3.35827 33.7846 173.431 -7.47922 0.536178 167.374 -27.6003 -1.2927 -1.12422 20.3569 8.01943 173.91 172.858 1.6408 -168.459 -61.7283 -2.01768 -2.11766 37.1435 -18.9412 -172.059 
8.48808 12.0307 -31.9687 -68.9204 74.5175 168.659 7.4981 4.11726 7.66899 -2.71668 1.06278 -0.736624 4.56187 -12.3538 -13.4239 13.0238 -22.2314 11.873 18.2719 -38.2396 -143.341 49.8288 8.24454 27.6406 0.423982 4.8284 174.43 -160.071 -35.1741 -145.083 27.963 1.53783 16.1711 3.51322 35.0091 173.347 -7.68075 1.72036 167.432 -28.6084 -1.31072 -1.15338 20.8776 8.2373 173.76 173.778 0.855895 -169.081 -60.066 -2.14852 -2.06053 39.9427 -20.3398 -169.965 
8.41656 12.0092 -31.9811 -66.0972 76.3212 166.363 7.00457 3.17606 8.03953 -2.76653 0.80128 -0.923084 3.88924 -10.955 -12.6336 13.0796 -19.9456 8.92902 15.0373 -36.3541 -145.331 47.265 7.217 26.4025 0.47456 5.39904 174.424 -159.972 -33.002 -144.941 27.2529 1.40025 15.7718 3.45678 34.5738 173.379 -7.15889 2.46425 167.232 -28.3884 -1.31569 -1.14718 21.2371 6.39914 174.518 174.694 -0.189031 -169.582 -58.0808 -2.2705 -1.99248 42.9297 -21.3068 -167.846 
8.30862 12.0102 -31.9789 -59.7139 78.7669 160.514 6.98708 2.48669 8.16121 -2.68646 0.599258 -0.79846 2.53598 -9.14863 -10.9793 13.4088 -17.1351 4.88994 11.7747 -33.7476 -147.568 44.412 6.14448 24.9872 0.566495 6.43447 174.412 -159.519 -31.1624 -144.387 27.249 1.39952 15.7697 3.22128 32.7052 173.508 -5.98538 3.42717 167.296 -27.7764 -1.31372 -1.12951 21.4406 4.61952 175.279 175.877 -1.8549 -170.049 -55.7802 -2.34897 -1.91445 45.6263 -21.4924 -166.229 
